#!OML:ASF E:\motion texture\Top Level 1\Subject 1\Session 1\male.ASF
:FULLY-SPECIFIED
:DEGREES
111
root 17.5278 17.5811 5.51245 463.823 -80.0515 -457.765
lowerback -0.256525 1.04372 9.57943
upperback -4.9664 1.5376 0.153149
thorax -4.82126 0.318263 -5.26054
lowerneck -13.5921 -7.07924 -10.6063
upperneck 7.59049 -7.65437 0.91861
head 4.92052 -4.02605 1.31084
rclavicle 8.39865e-015 -1.03368e-014
rhumerus 26.1891 -36.9661 -9.27126
rradius 105.236
rwrist 5.69497
rhand -33.6604 -34.0449
rfingers 7.12502
rthumb -6.85176 -63.914
lclavicle 8.39865e-015 -1.03368e-014
lhumerus -45.2546 3.17517 67.8093
lradius 59.0105
lwrist -16.1732
lhand -11.8413 17.815
lfingers 7.12502
lthumb 14.2099 47.3089
rfemur 2.88835 3.10995 32.9779
rtibia 31.5431
rfoot -14.4366 -0.955985
rtoes -8.82444
lfemur -31.7349 0.872446 -4.71679
ltibia 24.8241
lfoot -2.82635 3.36816
ltoes -10.2722
112
root 17.3561 17.5849 5.53634 462.659 -80.2 -456.836
lowerback -0.208518 0.971441 9.53378
upperback -4.96511 1.44386 0.0662285
thorax -4.8612 0.270468 -5.32504
lowerneck -13.5059 -7.12497 -10.7279
upperneck 7.48774 -7.70077 0.867907
head 4.87966 -4.05383 1.31326
rclavicle 3.72721e-015 3.73715e-014
rhumerus 26.5753 -38.1228 -8.92474
rradius 106.314
rwrist 5.89309
rhand -33.9299 -34.0579
rfingers 7.12502
rthumb -7.11189 -63.9184
lclavicle 3.72721e-015 3.73715e-014
lhumerus -45.4657 3.37596 67.7753
lradius 58.9385
lwrist -15.931
lhand -11.8066 17.8313
lfingers 7.12502
lthumb 14.2434 47.3229
rfemur 2.83538 2.69901 32.5679
rtibia 32.9009
rfoot -13.4591 -0.48541
rtoes -9.15716
lfemur -31.553 0.585628 -5.0621
ltibia 25.8313
lfoot -2.82758 2.72997
ltoes -8.59517
113
root 17.1836 17.5871 5.56107 461.445 -80.2838 -455.879
lowerback -0.145574 0.903874 9.54275
upperback -4.9664 1.36 0.00628182
thorax -4.91129 0.22503 -5.39217
lowerneck -13.3967 -7.17437 -10.8526
upperneck 7.39772 -7.75239 0.79318
head 4.83869 -4.08612 1.30873
rclavicle -2.6339e-015 -1.82882e-014
rhumerus 27.0147 -39.2657 -8.66131
rradius 107.379
rwrist 6.1399
rhand -34.2255 -34.0708
rfingers 7.12502
rthumb -7.39728 -63.9215
lclavicle -2.6339e-015 -1.82882e-014
lhumerus -45.6494 3.57553 67.7604
lradius 58.7708
lwrist -15.795
lhand -11.7934 17.8056
lfingers 7.12502
lthumb 14.2561 47.2963
rfemur 2.7447 2.27129 32.1995
rtibia 34.3208
rfoot -12.2939 0.00450729
rtoes -9.2237
lfemur -31.3082 0.294087 -5.34082
ltibia 26.8484
lfoot -2.96523 2.2098
ltoes -6.85719
114
root 17.0111 17.5871 5.58644 460.288 -80.3332 -454.993
lowerback -0.0751531 0.841875 9.5687
upperback -4.96721 1.28536 -0.0314598
thorax -4.96418 0.183701 -5.44564
lowerneck -13.291 -7.2274 -10.9748
upperneck 7.34633 -7.80535 0.682188
head 4.80904 -4.12222 1.29166
rclavicle 1.98785e-016 -1.35174e-014
rhumerus 27.5405 -40.3963 -8.50911
rradius 108.421
rwrist 6.44525
rhand -34.5441 -34.0735
rfingers 7.12502
rthumb -7.70476 -63.9131
lclavicle 1.98785e-016 -1.35174e-014
lhumerus -45.8044 3.78722 67.7663
lradius 58.518
lwrist -15.7745
lhand -11.8035 17.7546
lfingers 7.12502
lthumb 14.2464 47.246
rfemur 2.60459 1.85028 31.8435
rtibia 35.8017
rfoot -10.9344 0.481191
rtoes -8.94628
lfemur -31 -0.00307842 -5.59021
ltibia 27.8523
lfoot -3.21471 1.77584
ltoes -5.05526
115
root 16.8394 17.5851 5.61211 459.234 -80.3907 -454.219
lowerback 0.0137205 0.785368 9.56629
upperback -4.97443 1.21988 -0.0614973
thorax -5.03331 0.147256 -5.47557
lowerneck -13.2042 -7.28506 -11.085
upperneck 7.34953 -7.86014 0.534009
head 4.7978 -4.16257 1.25949
rclavicle 7.95139e-016 -2.3059e-014
rhumerus 28.1468 -41.5085 -8.46925
rradius 109.447
rwrist 6.7991
rhand -34.8919 -34.0629
rfingers 7.12502
rthumb -8.04044 -63.89
lclavicle 7.95139e-016 -2.3059e-014
lhumerus -45.9253 4.0036 67.7856
lradius 58.1768
lwrist -15.8681
lhand -11.8557 17.6465
lfingers 7.12502
lthumb 14.196 47.1414
rfemur 2.40512 1.44642 31.4593
rtibia 37.3356
rfoot -9.34655 0.892532
rtoes -8.30274
lfemur -30.6331 -0.31547 -5.85857
ltibia 28.8129
lfoot -3.53484 1.41142
ltoes -3.22169
116
root 16.6696 17.5812 5.63769 458.28 -80.5003 -453.544
lowerback 0.112602 0.729809 9.48906
upperback -4.98628 1.1548 -0.0952049
thorax -5.11311 0.113586 -5.46734
lowerneck -13.143 -7.34794 -11.1782
upperneck 7.40269 -7.91759 0.35104
head 4.8045 -4.20726 1.21195
rclavicle 2.38542e-015 1.74931e-014
rhumerus 28.8563 -42.6089 -8.57324
rradius 110.459
rwrist 7.19964
rhand -35.2517 -34.033
rfingers 7.12502
rthumb -8.38767 -63.8464
lclavicle 2.38542e-015 1.74931e-014
lhumerus -46.0042 4.23358 67.8167
lradius 57.7551
lwrist -16.0681
lhand -11.927 17.4938
lfingers 7.12502
lthumb 14.1273 46.9935
rfemur 2.13387 1.06411 31.0071
rtibia 38.921
rfoot -7.53041 1.19407
rtoes -7.30173
lfemur -30.2244 -0.644638 -6.19745
ltibia 29.7136
lfoot -3.91127 1.09759
ltoes -1.44218
117
root 16.5018 17.5756 5.6631 457.433 -80.6904 -452.968
lowerback 0.2184 0.678273 9.31193
upperback -5.00584 1.09248 -0.145094
thorax -5.20431 0.0846766 -5.42012
lowerneck -13.1005 -7.41935 -11.2677
upperneck 7.50591 -7.98293 0.161067
head 4.82997 -4.2576 1.15929
rclavicle -3.97569e-015 -2.14687e-014
rhumerus 29.6494 -43.6865 -8.81297
rradius 111.467
rwrist 7.63555
rhand -35.6284 -33.9824
rfingers 7.12502
rthumb -8.75124 -63.781
lclavicle -3.97569e-015 -2.14687e-014
lhumerus -46.0501 4.45589 67.8548
lradius 57.2701
lwrist -16.3475
lhand -12.0162 17.3327
lfingers 7.12502
lthumb 14.0414 46.8383
rfemur 1.78753 0.702991 30.4591
rtibia 40.5518
rfoot -5.50282 1.37645
rtoes -6.09934
lfemur -29.7859 -0.984291 -6.63992
ltibia 30.5499
lfoot -4.35033 0.841253
ltoes 0.153002
118
root 16.3367 17.5686 5.68791 456.607 -80.9668 -452.398
lowerback 0.329973 0.62499 9.02699
upperback -5.03472 1.02425 -0.211324
thorax -5.30916 0.0565368 -5.32916
lowerneck -13.078 -7.50146 -11.3706
upperneck 7.65232 -8.05786 -0.0135211
head 4.87399 -4.31341 1.11082
rclavicle 3.77691e-015 -6.36111e-015
rhumerus 30.5365 -44.7396 -9.202
rradius 112.479
rwrist 8.09161
rhand -36.0122 -33.9267
rfingers 7.12502
rthumb -9.12155 -63.7094
lclavicle 3.77691e-015 -6.36111e-015
lhumerus -46.0688 4.67095 67.897
lradius 56.7345
lwrist -16.69
lhand -12.142 17.1865
lfingers 7.12502
lthumb 13.9202 46.7006
rfemur 1.36238 0.356377 29.8188
rtibia 42.2268
rfoot -3.29822 1.45364
rtoes -4.8442
lfemur -29.3407 -1.32641 -7.19087
ltibia 31.3339
lfoot -4.86926 0.663452
ltoes 1.38443
119
root 16.1748 17.5603 5.7116 455.681 -81.3125 -451.712
lowerback 0.450537 0.569934 8.65669
upperback -5.07317 0.950244 -0.297434
thorax -5.42952 0.0282393 -5.21075
lowerneck -13.0438 -7.59963 -11.4739
upperneck 7.80008 -8.15771 -0.163777
head 4.91887 -4.38001 1.06783
rclavicle 7.95139e-016 -1.19271e-014
rhumerus 31.4785 -45.7662 -9.71139
rradius 113.5
rwrist 8.53749
rhand -36.4215 -33.8624
rfingers 7.12502
rthumb -9.51649 -63.6275
lclavicle 7.95139e-016 -1.19271e-014
lhumerus -46.0476 4.85965 67.939
lradius 56.1534
lwrist -17.0795
lhand -12.2923 17.0664
lfingers 7.12502
lthumb 13.7754 46.5903
rfemur 0.85904 0.0170081 29.1152
rtibia 43.9442
rfoot -0.968128 1.4554
rtoes -3.62114
lfemur -28.9104 -1.66352 -7.82679
ltibia 32.0924
lfoot -5.4829 0.573773
ltoes 2.15353
120
root 16.0162 17.5507 5.73386 454.562 -81.6923 -450.815
lowerback 0.574581 0.508985 8.23546
upperback -5.11744 0.865081 -0.39195
thorax -5.55905 -0.0036302 -5.0716
lowerneck -12.9995 -7.70834 -11.5924
upperneck 7.94221 -8.27445 -0.270721
head 4.96368 -4.45241 1.03922
rclavicle 8.94531e-016 9.54166e-015
rhumerus 32.4844 -46.7607 -10.3496
rradius 114.535
rwrist 8.9639
rhand -36.8601 -33.812
rfingers 7.12502
rthumb -9.93971 -63.5573
lclavicle 8.94531e-016 9.54166e-015
lhumerus -45.9979 5.02872 67.9769
lradius 55.5475
lwrist -17.5008
lhand -12.4315 16.9941
lfingers 7.12502
lthumb 13.6411 46.5271
rfemur 0.283225 -0.316876 28.3968
rtibia 45.6961
rfoot 1.43369 1.40877
rtoes -2.42974
lfemur -28.4985 -1.98337 -8.50233
ltibia 32.8253
lfoot -6.17711 0.537695
ltoes 2.4814
121
root 15.8608 17.5397 5.7543 453.136 -82.0675 -449.598
lowerback 0.709801 0.439768 7.80089
upperback -5.1635 0.76745 -0.487502
thorax -5.69804 -0.0410111 -4.92499
lowerneck -12.9288 -7.83041 -11.7178
upperneck 8.04194 -8.41692 -0.331582
head 4.99441 -4.53325 1.02515
rclavicle -4.57205e-015 9.54166e-015
rhumerus 33.541 -47.7331 -11.1018
rradius 115.582
rwrist 9.35741
rhand -37.3203 -33.7544
rfingers 7.12502
rthumb -10.3836 -63.4781
lclavicle -4.57205e-015 9.54166e-015
lhumerus -45.9048 5.18083 68.0086
lradius 54.9147
lwrist -17.9452
lhand -12.553 16.9544
lfingers 7.12502
lthumb 13.5241 46.4953
rfemur -0.35168 -0.651954 27.7132
rtibia 47.4699
rfoot 3.86129 1.32274
rtoes -1.22442
lfemur -28.099 -2.28543 -9.17082
ltibia 33.5298
lfoot -6.92801 0.507797
ltoes 2.4999
